<?xml version="1.0" encoding="utf-8"?>
<!-- Generator: Adobe Illustrator 23.1.1, SVG Export Plug-In . SVG Version: 6.00 Build 0)  -->
<svg version="1.1" id="Layer_1" xmlns="http://www.w3.org/2000/svg" xmlns:xlink="http://www.w3.org/1999/xlink" x="0px" y="0px"
	 viewBox="0 0 417.8 447.8" style="enable-background:new 0 0 417.8 447.8;" xml:space="preserve">
<style type="text/css">
	.st0{fill:#4D6499;stroke:#06080C;stroke-miterlimit:10;}
	.st1{fill:#41B883;}
	.st2{fill:#35495E;}
</style>
<path class="st0" d="M140.5,1.5c-19.1,2.6-35.3,9.1-52.4,21.3C44.3,54.1,10.2,112.4,1.4,171.4c-2.2,15.3-1.7,47.5,1.2,60
	c9.5,41.9,31.8,72,72.2,97.9c11.7,7.4,34.2,18.2,50,23.8c14.2,5.1,40.6,11.6,57.7,14c14,2,54.6,2.8,67.2,1.3l6.1-0.8l3,4.7
	c1.6,2.6,5.1,6,7.7,7.7c4,2.6,5.9,3,12.1,3c6.4,0,7.9-0.4,11.5-3.1c5.7-4.1,7.7-9.1,7.1-17l-0.4-6.3l6.7-3.2
	c9.3-4.5,19.1-11.4,25.1-17.6c17.9-18.7,43.9-57.2,59-87.8c20.4-41.4,30.2-76,30.3-107.7c0-19.8-2.2-30.3-9.5-44.5
	C385.7,52.5,291.8,10,198.7,1C183.2-0.5,153.9-0.2,140.5,1.5z"/>
<path class="st0" d="M245.1,401.3c-6.9,3.6-9,13.1-4.6,20c6.6,10.2,23.5,11.3,28.6,1.7c2.8-5,1.6-13-2.4-17.2
	C261,400.1,251.4,398,245.1,401.3z"/>
<path class="st0" d="M205.7,426.5c-6,2.3-7.8,10.4-3.6,15.5c5.1,6.3,14.3,7.6,19.9,2.9c3.8-3.2,4.7-8.5,2.1-13
	C221.2,426.8,212,424.1,205.7,426.5z"/>
<g>
	<polygon id="XMLID_2_" class="st1" points="290.5,84.8 344.2,84.8 209.9,316.4 75.6,84.8 128.6,84.8 178.3,84.8 209.9,138.5 
		240.7,84.8 	"/>
	<polygon id="XMLID_4_" class="st2" points="128.6,84.8 209.9,224.4 290.5,84.8 240.7,84.8 209.9,138.5 178.3,84.8 	"/>
</g>
</svg>
